PathFileType	4	(X/Y/Z)	 2.8Hzlow3min.trc
DataRate	CameraRate	NumFrames	NumMarkers	Units	OrigDataRate	OrigDataStartFrame	OrigNumFrames
200	200	10	35	m	200	251	1000
Frame#	Time	C7			LSH			RSH			MAN			RASI			LASI			HIPR			HIPL			RPSI			LPSI			COX			RTHI1			RTHI2			RTHI3			RTHI4			RSHA1			RSHA2			RSHA3			RSHA4			RHEEL			RMET5			RMET1			RTOE			LTHI1			LTHI2			LTHI3			LTHI4			LSHA1			LSHA2			LSHA3			LSHA4			LHEEL			LMET5			LMET1			LTOE			
		X1	Y1	Z1	X2	Y2	Z2	X3	Y3	Z3	X4	Y4	Z4	X5	Y5	Z5	X6	Y6	Z6	X7	Y7	Z7	X8	Y8	Z8	X9	Y9	Z9	X10	Y10	Z10	X11	Y11	Z11	X12	Y12	Z12	X13	Y13	Z13	X14	Y14	Z14	X15	Y15	Z15	X16	Y16	Z16	X17	Y17	Z17	X18	Y18	Z18	X19	Y19	Z19	X20	Y20	Z20	X21	Y21	Z21	X22	Y22	Z22	X23	Y23	Z23	X24	Y24	Z24	X25	Y25	Z25	X26	Y26	Z26	X27	Y27	Z27	X28	Y28	Z28	X29	Y29	Z29	X30	Y30	Z30	X31	Y31	Z31	X32	Y32	Z32	X33	Y33	Z33	X34	Y34	Z34	X35	Y35	Z35	
251	1.2550	-0.320370	1.335521	-0.564527	-0.282312	1.300602	-0.739500	-0.284440	1.311710	-0.387693	-0.205701	1.291513	-0.563064	-0.181699	0.908257	-0.468097	-0.174387	0.914470	-0.651141	-0.253600	0.945868	-0.425191	-0.242668	0.953469	-0.694410	-0.329436	0.932376	-0.501798	-0.325883	0.935518	-0.614273	-0.331269	0.947227	-0.561021	-0.268260	0.731274	-0.390508	-0.249508	0.674870	-0.382752	-0.187124	0.690261	-0.390983	-0.197800	0.750338	-0.398892	-0.285154	0.311356	-0.361309	-0.312714	0.277716	-0.360241	-0.260202	0.247625	-0.381084	-0.239875	0.282572	-0.382153	-0.433435	0.082241	-0.422319	-0.285563	0.027303	-0.362448	-0.252583	0.035686	-0.440006	-0.227852	0.025823	-0.433878	-0.242168	0.700345	-0.739096	-0.222363	0.641935	-0.737540	-0.161666	0.656642	-0.719225	-0.173792	0.715121	-0.719496	-0.318625	0.289394	-0.734097	-0.341119	0.255983	-0.730380	-0.285122	0.226894	-0.725041	-0.269139	0.267905	-0.730679	-0.436370	0.093662	-0.676807	-0.290471	0.024305	-0.730956	-0.257666	0.034416	-0.654528	-0.234716	0.024445	-0.659496	
252	1.2600	-0.320530	1.332932	-0.564472	-0.282826	1.297373	-0.739521	-0.284926	1.308792	-0.387489	-0.205703	1.288622	-0.562964	-0.181576	0.905340	-0.468084	-0.174668	0.911952	-0.651668	-0.253619	0.942367	-0.424696	-0.243676	0.950416	-0.694764	-0.329814	0.929619	-0.501169	-0.326528	0.933156	-0.613727	-0.331596	0.944988	-0.560432	-0.269107	0.728902	-0.390787	-0.250267	0.672564	-0.382928	-0.187870	0.688111	-0.390507	-0.198622	0.748169	-0.398469	-0.285474	0.309242	-0.361498	-0.312881	0.275233	-0.360744	-0.260368	0.245335	-0.381411	-0.240018	0.280320	-0.382357	-0.434164	0.080253	-0.423285	-0.285881	0.027252	-0.362503	-0.252631	0.035541	-0.440248	-0.227802	0.025738	-0.433929	-0.242999	0.698586	-0.738998	-0.223103	0.640201	-0.737559	-0.162286	0.654999	-0.719669	-0.174507	0.713461	-0.719880	-0.318696	0.287445	-0.733354	-0.341236	0.254081	-0.729530	-0.285292	0.224932	-0.724094	-0.269249	0.265917	-0.729877	-0.437005	0.092031	-0.675279	-0.290808	0.024304	-0.730759	-0.257612	0.034217	-0.654222	-0.234592	0.024358	-0.659376	
253	1.2650	-0.320660	1.330875	-0.564397	-0.283294	1.294553	-0.739550	-0.285402	1.306296	-0.387260	-0.205673	1.286243	-0.562862	-0.181438	0.902987	-0.468110	-0.174955	0.910087	-0.652150	-0.253603	0.939462	-0.424213	-0.244671	0.948138	-0.695021	-0.330085	0.927493	-0.500527	-0.327061	0.931422	-0.613068	-0.331890	0.943332	-0.559793	-0.269942	0.727070	-0.391128	-0.251060	0.670773	-0.383145	-0.188640	0.686431	-0.390088	-0.199427	0.746480	-0.398126	-0.285820	0.307402	-0.361804	-0.313058	0.273165	-0.361327	-0.260498	0.243479	-0.381767	-0.240169	0.278510	-0.382585	-0.434694	0.078636	-0.424377	-0.286162	0.027223	-0.362615	-0.252584	0.035411	-0.440445	-0.227676	0.025668	-0.433958	-0.243896	0.697207	-0.738861	-0.223892	0.638851	-0.737526	-0.162972	0.653766	-0.720065	-0.175295	0.712206	-0.720227	-0.318814	0.286000	-0.732464	-0.341396	0.252688	-0.728514	-0.285487	0.223475	-0.723155	-0.269399	0.264429	-0.729064	-0.437429	0.090729	-0.673596	-0.291138	0.024331	-0.730493	-0.257467	0.034048	-0.653944	-0.234405	0.024282	-0.659286	
254	1.2700	-0.320763	1.329348	-0.564313	-0.283699	1.292207	-0.739580	-0.285853	1.304281	-0.387016	-0.205658	1.284382	-0.562746	-0.181283	0.901256	-0.468163	-0.175228	0.908892	-0.652547	-0.253529	0.937258	-0.423757	-0.245580	0.946711	-0.695154	-0.330245	0.926019	-0.499901	-0.327486	0.930307	-0.612374	-0.332145	0.942223	-0.559142	-0.270734	0.725760	-0.391509	-0.251840	0.669490	-0.383383	-0.189396	0.685238	-0.389733	-0.200186	0.745273	-0.397867	-0.286197	0.305932	-0.362214	-0.313261	0.271579	-0.361981	-0.260630	0.242109	-0.382128	-0.240355	0.277175	-0.382815	-0.435034	0.077422	-0.425546	-0.286402	0.027210	-0.362765	-0.252445	0.035299	-0.440588	-0.227486	0.025612	-0.433958	-0.244806	0.696219	-0.738699	-0.224701	0.637889	-0.737440	-0.163681	0.652921	-0.720403	-0.176106	0.711347	-0.720539	-0.319029	0.285046	-0.731461	-0.341636	0.251780	-0.727371	-0.285743	0.222502	-0.722264	-0.269641	0.263442	-0.728285	-0.437651	0.089760	-0.671837	-0.291449	0.024379	-0.730175	-0.257250	0.033912	-0.653704	-0.234171	0.024220	-0.659223	
255	1.2750	-0.320849	1.328348	-0.564232	-0.284022	1.290378	-0.739604	-0.286265	1.302797	-0.386772	-0.205653	1.283058	-0.562619	-0.181113	0.900181	-0.468229	-0.175472	0.908351	-0.652831	-0.253379	0.935850	-0.423342	-0.246338	0.946144	-0.695138	-0.330303	0.925183	-0.499329	-0.327813	0.929775	-0.611696	-0.332363	0.941628	-0.558521	-0.271456	0.724959	-0.391900	-0.252566	0.668714	-0.383643	-0.190098	0.684526	-0.389443	-0.200892	0.744538	-0.397690	-0.286620	0.304917	-0.362700	-0.313538	0.270501	-0.362770	-0.260788	0.241243	-0.382467	-0.240585	0.276344	-0.383029	-0.435199	0.076623	-0.426729	-0.286597	0.027211	-0.362945	-0.252236	0.035203	-0.440691	-0.227247	0.025565	-0.433947	-0.245684	0.695669	-0.738517	-0.225505	0.637354	-0.737308	-0.164395	0.652483	-0.720683	-0.176887	0.710896	-0.720819	-0.319369	0.284551	-0.730403	-0.341983	0.251319	-0.726159	-0.286080	0.222003	-0.721469	-0.270000	0.262927	-0.727585	-0.437693	0.089133	-0.670100	-0.291728	0.024444	-0.729821	-0.256983	0.033809	-0.653495	-0.233908	0.024170	-0.659172	
256	1.2800	-0.320923	1.327867	-0.564155	-0.284262	1.289123	-0.739616	-0.286624	1.301879	-0.386542	-0.205651	1.282288	-0.562485	-0.180929	0.899767	-0.468290	-0.175667	0.908417	-0.652989	-0.253151	0.935278	-0.422989	-0.246898	0.946365	-0.694971	-0.330274	0.924954	-0.498838	-0.328040	0.929771	-0.611092	-0.332553	0.941527	-0.557981	-0.272086	0.724649	-0.392278	-0.253205	0.668409	-0.383906	-0.190724	0.684286	-0.389212	-0.201519	0.744279	-0.397574	-0.287096	0.304457	-0.363214	-0.313925	0.270024	-0.363555	-0.260985	0.240890	-0.382753	-0.240854	0.276028	-0.383209	-0.435172	0.076242	-0.427896	-0.286742	0.027224	-0.363152	-0.251978	0.035121	-0.440771	-0.226983	0.025520	-0.433937	-0.246496	0.695600	-0.738321	-0.226278	0.637290	-0.737150	-0.165084	0.652483	-0.720919	-0.177601	0.710887	-0.721059	-0.319832	0.284480	-0.729354	-0.342432	0.251271	-0.724947	-0.286502	0.221950	-0.720810	-0.270470	0.262868	-0.726996	-0.437577	0.088874	-0.668501	-0.291960	0.024519	-0.729455	-0.256689	0.033739	-0.653324	-0.233636	0.024131	-0.659129	
257	1.2850	-0.321000	1.327905	-0.564090	-0.284423	1.288485	-0.739615	-0.286926	1.301550	-0.386335	-0.205644	1.282079	-0.562349	-0.180735	0.899998	-0.468328	-0.175797	0.909035	-0.653018	-0.252851	0.935530	-0.422714	-0.247254	0.947257	-0.694666	-0.330176	0.925287	-0.498443	-0.328175	0.930237	-0.610590	-0.332608	0.941847	-0.557512	-0.272603	0.724812	-0.392624	-0.253739	0.668579	-0.384157	-0.191240	0.684513	-0.389030	-0.202048	0.744483	-0.397498	-0.287622	0.304642	-0.363664	-0.314367	0.270099	-0.364366	-0.261222	0.241050	-0.382965	-0.241165	0.276215	-0.383336	-0.434978	0.076274	-0.428973	-0.286834	0.027245	-0.363372	-0.251685	0.035054	-0.440828	-0.226707	0.025483	-0.433930	-0.247214	0.696026	-0.738118	-0.226993	0.637706	-0.736981	-0.165716	0.652925	-0.721112	-0.178229	0.711334	-0.721255	-0.320404	0.284821	-0.728392	-0.342956	0.251618	-0.723830	-0.286969	0.222333	-0.720303	-0.271026	0.263249	-0.726541	-0.437325	0.088956	-0.667116	-0.292136	0.024593	-0.729105	-0.256388	0.033699	-0.653198	-0.233369	0.024103	-0.659097	
258	1.2900	-0.321079	1.328462	-0.564042	-0.284511	1.288478	-0.739599	-0.287168	1.301818	-0.386155	-0.205655	1.282428	-0.562211	-0.180529	0.900831	-0.468331	-0.175851	0.910147	-0.652924	-0.252500	0.936529	-0.422524	-0.247402	0.948689	-0.694254	-0.330025	0.926125	-0.498150	-0.328218	0.931132	-0.610211	-0.332597	0.942601	-0.557141	-0.272999	0.725447	-0.392917	-0.254166	0.669207	-0.384382	-0.191648	0.685193	-0.388876	-0.202465	0.745139	-0.397442	-0.288192	0.305401	-0.364041	-0.314839	0.270670	-0.365167	-0.261489	0.241696	-0.383099	-0.241512	0.276874	-0.383403	-0.434635	0.076697	-0.429902	-0.286873	0.027274	-0.363598	-0.251380	0.035005	-0.440862	-0.226431	0.025459	-0.433938	-0.247815	0.696940	-0.737917	-0.227633	0.638599	-0.736818	-0.166271	0.653793	-0.721259	-0.178746	0.712218	-0.721390	-0.321040	0.285563	-0.727580	-0.343518	0.252324	-0.722886	-0.287462	0.223118	-0.719971	-0.271637	0.264054	-0.726244	-0.436959	0.089376	-0.666010	-0.292252	0.024662	-0.728791	-0.256095	0.033687	-0.653129	-0.233121	0.024087	-0.659076	
259	1.2950	-0.321160	1.329539	-0.564005	-0.284533	1.289105	-0.739570	-0.287346	1.302676	-0.386005	-0.205664	1.283351	-0.562082	-0.180318	0.902216	-0.468287	-0.175824	0.911705	-0.652720	-0.252126	0.938166	-0.422407	-0.247370	0.950542	-0.693776	-0.329829	0.927429	-0.497952	-0.328164	0.932419	-0.609935	-0.332507	0.943764	-0.556864	-0.273272	0.726560	-0.393151	-0.254494	0.670294	-0.384578	-0.191960	0.686298	-0.388744	-0.202770	0.746226	-0.397397	-0.288797	0.306588	-0.364334	-0.315308	0.271666	-0.365860	-0.261770	0.242783	-0.383159	-0.241889	0.277974	-0.383412	-0.434164	0.077488	-0.430654	-0.286862	0.027312	-0.363825	-0.251075	0.034973	-0.440876	-0.226172	0.025439	-0.433958	-0.248294	0.698314	-0.737728	-0.228181	0.639946	-0.736678	-0.166740	0.655079	-0.721362	-0.179153	0.713517	-0.721463	-0.321713	0.286663	-0.726977	-0.344089	0.253370	-0.722176	-0.287950	0.224292	-0.719827	-0.272262	0.265259	-0.726118	-0.436502	0.090119	-0.665237	-0.292307	0.024725	-0.728528	-0.255822	0.033703	-0.653120	-0.232904	0.024081	-0.659074	
260	1.3000	-0.321232	1.331119	-0.563972	-0.284497	1.290355	-0.739531	-0.287459	1.304102	-0.385884	-0.205672	1.284835	-0.561967	-0.180097	0.904092	-0.468190	-0.175716	0.913668	-0.652422	-0.251762	0.940317	-0.422349	-0.247196	0.952723	-0.693278	-0.329594	0.929150	-0.497832	-0.328017	0.934080	-0.609753	-0.332331	0.945317	-0.556659	-0.273440	0.728120	-0.393312	-0.254732	0.671825	-0.384711	-0.192180	0.687815	-0.388630	-0.202944	0.747739	-0.397337	-0.289406	0.308120	-0.364542	-0.315718	0.273047	-0.366314	-0.262050	0.244284	-0.383150	-0.242286	0.279477	-0.383367	-0.433580	0.078616	-0.431212	-0.286809	0.027357	-0.364045	-0.250773	0.034959	-0.440866	-0.225938	0.025426	-0.433984	-0.248649	0.700121	-0.737565	-0.228630	0.641717	-0.736570	-0.167119	0.656753	-0.721423	-0.179447	0.715216	-0.721477	-0.322392	0.288108	-0.726619	-0.344644	0.254734	-0.721737	-0.288404	0.225825	-0.719867	-0.272874	0.266838	-0.726167	-0.435958	0.091173	-0.664815	-0.292300	0.024780	-0.728328	-0.255580	0.033745	-0.653182	-0.232730	0.024085	-0.659100	
